<svg width="179" height="29" viewBox="0 0 179 29" fill="none" xmlns="http://www.w3.org/2000/svg">
<path d="M31.3134 7.94189H18.4733C16.9288 7.94189 15.6766 9.19167 15.6766 10.7333V11.4491C15.6766 12.9908 16.9288 14.2405 18.4733 14.2405H31.3134C32.858 14.2405 34.1101 12.9908 34.1101 11.4491V10.7333C34.1101 9.19167 32.858 7.94189 31.3134 7.94189Z" fill="#2B283A"/>
<path d="M24.37 15.3921H18.1019C16.7625 15.3921 15.6766 16.4759 15.6766 17.8128V18.4335C15.6766 19.7704 16.7625 20.8542 18.1019 20.8542H24.37C25.7094 20.8542 26.7952 19.7704 26.7952 18.4335V17.8128C26.7952 16.4759 25.7094 15.3921 24.37 15.3921Z" fill="#2B283A"/>
<path d="M23.9974 22.0063H11.1573C9.61272 22.0063 8.3606 23.2561 8.3606 24.7978V25.5136C8.3606 27.0552 9.61272 28.305 11.1573 28.305H23.9974C25.542 28.305 26.7941 27.0552 26.7941 25.5136V24.7978C26.7941 23.2561 25.542 22.0063 23.9974 22.0063Z" fill="#2B283A"/>
<path d="M3.60549 22.0063H2.79666C1.25211 22.0063 0 23.2561 0 24.7978V25.5135C0 27.0552 1.25211 28.305 2.79666 28.305H3.60549C5.15004 28.305 6.40213 27.0552 6.40213 25.5135V24.7978C6.40213 23.2561 5.15004 22.0063 3.60549 22.0063Z" fill="#2B283A"/>
<path d="M40.9318 23.0618C41.5755 26.9556 45.4009 28.5813 49.8701 28.5813C54.8696 28.5813 58.5058 26.3886 58.5058 22.192C58.5058 19.3945 56.8394 17.2398 53.2409 16.4835L48.7717 15.5762C47.5594 15.3132 47.3324 14.7823 47.3324 14.2533C47.3324 13.5725 47.8627 12.7787 49.4914 12.7787C51.3472 12.7787 52.4836 13.8374 52.6729 15.0092L58.2028 13.9129C57.4454 10.6236 54.3016 8.46924 49.5671 8.46924C44.7569 8.46924 41.3861 11.0019 41.3861 14.8961C41.3861 17.8826 43.3935 19.7728 46.916 20.415L50.7792 21.1716C52.1802 21.4346 52.6729 21.9275 52.6729 22.57C52.6729 23.4021 51.8015 24.0822 50.2111 24.0822C48.5824 24.0822 47.1053 23.4773 46.8403 21.8517L40.9318 23.0618Z" fill="#2B283A"/>
<path d="M69.196 23.2884C66.4689 23.2884 64.6508 21.3226 64.6508 18.5251C64.6508 15.7652 66.4689 13.7615 69.196 13.7615C71.1274 13.7615 72.6805 14.8202 73.2105 17.1263L78.892 15.7652C77.8313 11.3044 73.8168 8.46924 69.196 8.46924C63.5144 8.46924 58.8176 12.5521 58.8176 18.5251C58.8176 24.5361 63.5144 28.5813 69.196 28.5813C73.9302 28.5813 77.945 25.6703 78.892 21.1716L73.3242 19.9618C72.6805 22.2679 71.1274 23.2884 69.196 23.2884Z" fill="#2B283A"/>
<path d="M92.3715 8.77051C89.2658 8.77051 87.1821 10.3962 85.819 12.6643V9.03533H79.7588V28.0134H85.819V22.0777C85.819 17.1634 88.1294 14.9707 92.3715 14.9707H93.4696L93.7331 8.92187C93.2785 8.80871 92.8998 8.77204 92.3697 8.77204L92.3715 8.77051Z" fill="#2B283A"/>
<path d="M98.0832 0C96.0382 0 94.5988 1.58776 94.5988 3.44003C94.5988 5.36845 96.0382 6.80482 98.0832 6.80482C100.129 6.80482 101.606 5.36845 101.606 3.44003C101.606 1.58776 100.129 0 98.0832 0ZM101.113 28.0135V9.03539H95.0531V28.0135H101.113Z" fill="#2B283A"/>
<path d="M127.091 8.46924C124.137 8.46924 121.865 9.71632 120.35 11.6824C119.062 9.60318 116.79 8.46924 114.138 8.46924C111.676 8.46924 109.82 9.33834 108.533 10.775V9.03621H102.472V28.0144H108.533V18.7141C108.533 15.5386 109.972 13.9129 112.169 13.9129C113.987 13.9129 115.388 15.2741 115.388 17.4288V28.0144H121.448V18.7141C121.448 15.5386 122.925 13.9129 125.16 13.9129C126.94 13.9129 128.341 15.2741 128.341 17.4288V28.0144H134.364V16.1432C134.364 11.531 131.144 8.46924 127.091 8.46924Z" fill="#2B283A"/>
<path d="M147.198 8.46753C144.736 8.46753 142.767 9.2235 141.289 10.5467V0.792969H135.229V28.0126H141.289V26.5001C142.767 27.8236 144.736 28.5796 147.198 28.5796C152.235 28.5796 156.478 24.5344 156.478 18.5234C156.478 12.5504 152.235 8.46753 147.198 8.46753ZM145.948 23.4381C143.486 23.4381 141.289 21.472 141.289 18.5234C141.289 15.6121 143.486 13.6091 145.948 13.6091C148.599 13.6091 150.531 15.6121 150.531 18.5234C150.531 21.472 148.599 23.4381 145.948 23.4381Z" fill="#2B283A"/>
<path d="M178.59 9.03621H172.53V10.5484C171.053 9.2252 169.084 8.46924 166.622 8.46924C161.584 8.46924 157.342 12.5521 157.342 18.5251C157.342 24.5361 161.584 28.5813 166.622 28.5813C169.084 28.5813 171.053 27.8253 172.53 26.5018V28.0143H178.59V9.03621ZM167.872 23.4397C165.221 23.4397 163.289 21.4737 163.289 18.5251C163.289 15.6138 165.221 13.6108 167.872 13.6108C170.333 13.6108 172.53 15.6138 172.53 18.5251C172.53 21.4737 170.333 23.4397 167.872 23.4397Z" fill="#2B283A"/>
</svg>
